<?xml version="1.0" standalone="no"?>
<!DOCTYPE svg PUBLIC "-//W3C//DTD SVG 20010904//EN"
 "http://www.w3.org/TR/2001/REC-SVG-20010904/DTD/svg10.dtd">
<svg version="1.0" xmlns="http://www.w3.org/2000/svg"
 width="130.000000pt" height="130.000000pt" viewBox="0 0 130.000000 130.000000"
 preserveAspectRatio="xMidYMid meet">

<g transform="translate(0.000000,130.000000) scale(0.100000,-0.100000)"
fill="#000000" stroke="none">
<path d="M601 996 c-18 -19 -22 -33 -19 -60 3 -27 0 -36 -14 -39 -19 -5 -26
-57 -8 -57 6 0 10 -15 10 -34 0 -31 -3 -34 -37 -41 -21 -3 -63 -17 -93 -30
-30 -13 -68 -26 -84 -30 -16 -3 -62 -20 -103 -37 -60 -25 -73 -35 -73 -54 0
-32 10 -54 25 -54 23 0 106 41 112 56 6 17 26 19 20 2 -2 -7 4 -30 15 -51 17
-34 17 -39 3 -53 -8 -9 -15 -21 -15 -27 0 -6 -7 -1 -16 11 -11 15 -25 22 -50
22 -34 0 -34 0 -34 -45 l0 -44 408 0 408 1 13 29 c20 45 8 61 -41 59 -24 -1
-53 -1 -66 -1 l-23 1 24 43 c14 23 23 48 20 55 -3 6 2 12 11 12 9 0 16 -6 16
-14 0 -17 96 -60 117 -52 10 4 13 17 11 42 -3 33 -7 38 -60 60 -32 13 -81 31
-110 39 -29 8 -90 27 -135 42 -81 27 -82 29 -83 61 0 17 4 32 8 32 5 0 7 14 4
30 -2 17 -10 30 -16 30 -8 0 -11 12 -8 36 6 48 -27 84 -78 84 -26 0 -43 -7
-59 -24z m103 -28 c13 -19 14 -25 2 -43 -27 -41 -96 -27 -96 19 0 48 66 65 94
24z m-74 -88 c0 -5 8 -10 18 -10 15 -1 15 -2 -2 -15 -27 -21 -13 -29 25 -16
43 15 49 14 49 -7 0 -13 -12 -21 -42 -28 -23 -5 -43 -14 -45 -21 -3 -9 4 -10
29 -2 18 5 39 9 45 9 17 0 17 -27 1 -33 -7 -3 -1 -6 13 -6 30 -1 146 -36 168
-50 13 -8 12 -15 -4 -51 -22 -50 -65 -80 -65 -45 0 14 -56 35 -96 35 -27 0
-87 -21 -95 -33 -9 -13 -29 0 -29 19 0 17 -12 17 -62 3 -22 -5 -38 -16 -38
-24 0 -35 -43 -5 -65 45 -16 36 -17 43 -4 51 24 16 140 49 173 50 19 0 25 3
16 7 -14 7 -25 89 -15 120 5 14 25 16 25 2z m405 -225 c40 -18 16 -19 -26 0
-19 8 -27 14 -19 14 8 0 29 -6 45 -14z m-737 -9 c-7 -8 -17 -12 -22 -9 -4 3
-2 9 5 14 22 13 31 11 17 -5z m662 11 c0 -2 -10 -12 -21 -23 -22 -19 -22 -19
-8 4 12 19 29 30 29 19z m-240 -47 c0 -5 -15 -10 -32 -9 -31 1 -32 1 -8 9 35
11 40 11 40 0z m391 -18 c-7 -2 -18 1 -23 6 -8 8 -4 9 13 5 13 -4 18 -8 10
-11z m-474 -9 c-12 -3 -16 -10 -13 -20 5 -13 4 -14 -9 -3 -23 19 -18 30 13 29
18 -1 21 -3 9 -6z m-43 -42 c17 -18 17 -19 0 -23 -30 -6 -104 4 -104 13 0 12
37 27 66 28 11 1 29 -8 38 -18z m207 7 c50 -15 50 -28 0 -28 -22 0 -43 -4 -46
-10 -4 -6 -13 -5 -25 2 -18 11 -18 14 -3 30 19 21 24 22 74 6z m-493 -67 c4
-24 -11 -41 -38 -41 -12 0 -16 10 -16 35 0 33 2 36 26 33 18 -2 26 -10 28 -27z
m666 14 c8 -9 13 -22 10 -30 -10 -24 -24 -17 -24 11 0 15 -4 23 -11 18 -6 -3
-9 -15 -6 -25 6 -22 -8 -26 -17 -4 -4 12 17 45 29 45 2 0 10 -7 19 -15z m92 3
c4 -6 -1 -17 -12 -25 -10 -8 -18 -17 -16 -21 1 -4 -3 -7 -9 -7 -6 0 -13 15
-14 33 -2 28 0 32 21 32 12 0 26 -5 30 -12z m-682 -14 c10 -26 7 -31 -17 -31
-22 0 -23 2 -13 23 13 28 21 30 30 8z m67 4 c0 -10 2 -10 6 0 8 21 21 13 21
-13 0 -25 -17 -36 -19 -12 0 10 -2 10 -6 0 -8 -22 -23 -14 -23 12 0 25 19 36
21 13z m112 -7 c6 -25 0 -31 -30 -31 -18 0 -23 5 -23 25 0 20 5 25 24 25 15 0
26 -7 29 -19z m59 7 c6 -17 -1 -38 -13 -38 -5 0 -9 11 -9 25 0 26 14 34 22 13z
m79 0 c0 -10 2 -10 6 0 8 21 21 13 21 -13 0 -25 -17 -36 -19 -12 0 10 -2 10
-6 0 -8 -22 -23 -14 -23 12 0 25 19 36 21 13z m98 -18 c0 -14 -3 -19 -6 -12
-2 6 -11 12 -19 12 -8 0 -14 6 -14 14 0 9 9 14 20 13 15 -1 20 -8 19 -27z m62
18 c0 -10 2 -10 6 0 8 21 23 13 23 -13 0 -25 -19 -36 -21 -12 0 10 -2 10 -6 0
-8 -22 -23 -14 -23 12 0 25 19 36 21 13z"/>
<path d="M530 726 c-59 -18 -100 -34 -100 -40 0 -18 36 -76 47 -76 7 0 13 4
13 9 0 15 101 35 175 34 74 -1 156 -18 166 -35 4 -6 12 -7 18 -4 18 12 43 68
34 76 -41 40 -265 62 -353 36z m82 -28 c-3 -14 -2 -19 6 -14 7 4 12 2 12 -3 0
-22 -28 -10 -32 14 -4 16 -1 25 7 25 9 0 11 -8 7 -22z m71 2 c-8 -31 -23 -34
-23 -6 0 16 6 26 14 26 9 0 12 -7 9 -20z m61 14 c-7 -3 -10 -14 -7 -24 4 -15
0 -20 -13 -19 -11 0 -14 3 -8 5 7 3 10 14 7 24 -4 15 0 20 13 19 11 0 14 -3 8
-5z m-184 -13 c0 -5 3 -18 6 -28 5 -15 4 -15 -5 -3 -7 10 -11 11 -11 3 0 -7
-7 -13 -15 -13 -9 0 -15 9 -15 25 0 18 5 25 20 25 11 0 20 -4 20 -9z m241 -5
c11 6 11 -4 -1 -31 -5 -11 -9 -14 -9 -7 -1 7 -6 10 -13 6 -8 -5 -9 -2 -5 10 4
10 7 23 8 29 0 8 2 8 6 -1 2 -6 9 -10 14 -6z m-324 -12 c-3 -4 -2 -16 4 -26 9
-16 8 -19 -3 -16 -17 6 -23 48 -7 48 7 0 9 -3 6 -6z m387 -3 c7 -11 -20 -48
-29 -39 -9 8 4 48 15 48 5 0 11 -4 14 -9z"/>
</g>
</svg>
